<svg width="98" height="98" viewBox="0 0 98 98" fill="none" xmlns="http://www.w3.org/2000/svg">
<circle cx="49" cy="49" r="49" fill="#1E1F28"/>
<path d="M39.4167 41.3333C39.4167 40.825 39.6186 40.3375 39.978 39.978C40.3375 39.6186 40.825 39.4167 41.3333 39.4167H56.6667C57.175 39.4167 57.6625 39.6186 58.0219 39.978C58.3814 40.3375 58.5833 40.825 58.5833 41.3333C58.5833 41.8417 58.3814 42.3292 58.0219 42.6886C57.6625 43.0481 57.175 43.25 56.6667 43.25H41.3333C40.825 43.25 40.3375 43.0481 39.978 42.6886C39.6186 42.3292 39.4167 41.8417 39.4167 41.3333ZM41.3333 50.9167H56.6667C57.175 50.9167 57.6625 50.7147 58.0219 50.3553C58.3814 49.9958 58.5833 49.5083 58.5833 49C58.5833 48.4917 58.3814 48.0041 58.0219 47.6447C57.6625 47.2853 57.175 47.0833 56.6667 47.0833H41.3333C40.825 47.0833 40.3375 47.2853 39.978 47.6447C39.6186 48.0041 39.4167 48.4917 39.4167 49C39.4167 49.5083 39.6186 49.9958 39.978 50.3553C40.3375 50.7147 40.825 50.9167 41.3333 50.9167ZM49 54.75H41.3333C40.825 54.75 40.3375 54.9519 39.978 55.3114C39.6186 55.6708 39.4167 56.1583 39.4167 56.6667C39.4167 57.175 39.6186 57.6625 39.978 58.0219C40.3375 58.3814 40.825 58.5833 41.3333 58.5833H49C49.5083 58.5833 49.9958 58.3814 50.3553 58.0219C50.7147 57.6625 50.9167 57.175 50.9167 56.6667C50.9167 56.1583 50.7147 55.6708 50.3553 55.3114C49.9958 54.9519 49.5083 54.75 49 54.75ZM72 29.8333V55.8736C72.0016 56.3772 71.9031 56.8761 71.7102 57.3413C71.5173 57.8065 71.2338 58.2287 70.8763 58.5833L58.5833 70.8763C58.2287 71.2338 57.8065 71.5173 57.3413 71.7102C56.8761 71.9031 56.3772 72.0016 55.8736 72H29.8333C28.8167 72 27.8416 71.5961 27.1228 70.8772C26.4039 70.1583 26 69.1833 26 68.1667V29.8333C26 28.8167 26.4039 27.8416 27.1228 27.1228C27.8416 26.4039 28.8167 26 29.8333 26H68.1667C69.1833 26 70.1583 26.4039 70.8772 27.1228C71.5961 27.8416 72 28.8167 72 29.8333ZM29.8333 68.1667H54.75V56.6667C54.75 56.1583 54.9519 55.6708 55.3114 55.3114C55.6708 54.9519 56.1583 54.75 56.6667 54.75H68.1667V29.8333H29.8333V68.1667ZM58.5833 58.5833V65.4594L65.457 58.5833H58.5833Z" fill="url(#paint0_linear_4876_2218)"/>
<defs>
<linearGradient id="paint0_linear_4876_2218" x1="27.9167" y1="61.5" x2="72.0311" y2="19.9732" gradientUnits="userSpaceOnUse">
<stop stop-color="#6E28E0"/>
<stop offset="1" stop-color="#EB2F93"/>
</linearGradient>
</defs>
</svg>
